# xmcd
#
# Track frame offsets:
#	150
#	12132
#	24372
#	45367
#	63132
#	77455
#	97557
#	118135
#	137720
#	159095
#	172362
#	185430
#	203335
#	219175
#
# Disc length: 3173
#
# Revision: 1
# Processed by: cddbd v1.5.1PL0 Copyright (c) Steve Scherf et al.
# Submitted via: VisiTrax 2.9.3.171 - For more info visit www.synapsa.com
# Normalized: r0:DSETVAR1
#
DISCID=9c0c630e
DTITLE=Various Artist - Mr Music Country 12-01
DYEAR=1900
DGENRE=
TTITLE0=Dwight Yoakam - Santa Claus Is Back In Town
TTITLE1=Troy Cook Jr - Pictures In My Mind
TTITLE2=Emmylou Harris - And I Love You So
TTITLE3=Chad Brock with Hank Williams Jr and George Jones - A Country Boy Can Survive (Y2K)
TTITLE4=Angie Willis - Already Over You
TTITLE5=Craig Morgan with Merle Haggard - I Wish I Could See Bakersfield (A Tribute To Tommy Collins)
TTITLE6=Libbi Bosworth - Highway 59
TTITLE7=Joe Pat Hennen - Brand New Day
TTITLE8=Rosie Flores - Bandera Highway
TTITLE9=Tracy Lawrence - Lessons Learned
TTITLE10=Heather Lynn - Leaving Ain't Leaving
TTITLE11=Blake Shelton - Problems At Home
TTITLE12=Frenchie Burke - Jambalaya
TTITLE13=Paul Brandt - The Little Drummer Boy
EXTD=
EXTT0=
EXTT1=
EXTT2=
EXTT3=
EXTT4=
EXTT5=
EXTT6=
EXTT7=
EXTT8=
EXTT9=
EXTT10=
EXTT11=
EXTT12=
EXTT13=
PLAYORDER=
